<?xml version="1.0" encoding="utf-8"?>
<!-- Generator: Adobe Illustrator 24.0.0, SVG Export Plug-In . SVG Version: 6.00 Build 0)  -->
<svg version="1.1" xmlns="http://www.w3.org/2000/svg" xmlns:xlink="http://www.w3.org/1999/xlink" x="0px" y="0px"
	 viewBox="0 0 500 500" style="enable-background:new 0 0 500 500;" xml:space="preserve">
<style type="text/css">
	.st0{fill:#FFFFFF;}
	.st1{fill:#E9662C;}
	.st2{font-family:'Bevan';}
	.st3{font-size:25.0383px;}
	.st4{fill:#A3A3A3;}
	.st5{font-family:'OpenSans-Extrabold';}
	.st6{font-size:20.1693px;}
	.st7{fill:#E0F7FC;}
	.st8{fill:#656565;}
	.st9{fill:#C2C2C2;}
	.st10{fill:#888888;}
	.st11{fill:#F0C419;}
	.st12{fill:#F3D047;}
	.st13{fill:#292929;}
	.st14{fill:#1F1F1F;}
	.st15{fill:#A4C639;}
	.st16{fill:#323232;}
	.st17{fill:#D99A75;}
	.st18{fill:#E3E3E3;}
	.st19{fill:#FFB58A;}
	.st20{fill:#FFD800;}
	.st21{fill:#7D4C25;}
	.st22{fill:#33AEFF;}
	.st23{fill:#5E391C;}
	.st24{fill:none;stroke:#C9C9C9;stroke-miterlimit:10;}
	.st25{fill:#424242;}
	.st26{fill:#CFCFCF;}
	.st27{fill:#C7C7C7;}
	.st28{fill:#D1D1D1;}
	.st29{fill:#EDEDED;}
	.st30{fill:#FF7030;}
	.st31{fill:#6E4E3B;}
	.st32{fill:#805B45;}
	.st33{fill:#7B952B;}
	.st34{opacity:0.1;}
</style>
<g id="Background">
	<rect class="st0" width="500" height="500"/>
</g>
<g id="Objects">
	<g>
		<text transform="matrix(1 0 0 1 70.4857 410.1083)" class="st1 st2 st3">UNDER CONSTRUCTION</text>
		<text transform="matrix(1 0 0 1 143.5674 441.8204)" class="st4 st5 st6">We’ll be back soon!</text>
		<g>
			<g>
				<path class="st4" d="M436.49,368.17H48.83c-11.97,0-21.67-9.7-21.67-21.67v0c0-11.97,9.7-21.67,21.67-21.67h387.67
					c11.97,0,21.67,9.7,21.67,21.67v0C458.16,358.47,448.46,368.17,436.49,368.17z"/>
			</g>
			<g>
				<g>
					<path class="st7" d="M242.66,40.5L242.66,40.5c-105.49,0-191,85.51-191,191v93.33h382V231.5
						C433.66,126.01,348.15,40.5,242.66,40.5z"/>
				</g>
				<g>
					<g>
						<rect x="152.66" y="84.29" class="st8" width="1.88" height="39.97"/>
					</g>
					<g>
						<rect x="167.72" y="84.29" class="st8" width="1.88" height="39.97"/>
					</g>
					<g>
						<circle class="st9" cx="161.91" cy="84.29" r="11.13"/>
					</g>
					<g>
						<circle class="st10" cx="161.91" cy="84.29" r="7.2"/>
					</g>
					<g>
						<circle class="st9" cx="161.91" cy="84.29" r="4.98"/>
					</g>
					<g>
						<path class="st11" d="M173.04,87.4h-11.13c-1.86,0-3.37-1.51-3.37-3.37v0c0-1.86,1.51-3.37,3.37-3.37h11.13V87.4z"/>
					</g>
					<g>
						<g>
							
								<rect x="319.07" y="95.38" transform="matrix(0.6126 -0.7904 0.7904 0.6126 33.1473 298.9319)" class="st12" width="4.88" height="40.54"/>
						</g>
						<g>
							
								<rect x="319.07" y="95.38" transform="matrix(-0.6126 -0.7904 0.7904 -0.6126 427.0373 440.623)" class="st12" width="4.88" height="40.54"/>
						</g>
					</g>
					<g>
						<rect x="335.66" y="72.19" class="st12" width="6.67" height="57.13"/>
					</g>
					<g>
						<rect x="168.16" y="72.19" class="st12" width="6.67" height="22.5"/>
					</g>
					<g>
						
							<rect x="286.83" y="-45.97" transform="matrix(-1.836970e-16 1 -1 -1.836970e-16 365.6884 -214.6327)" class="st12" width="6.67" height="243"/>
					</g>
					<g>
						
							<rect x="232.89" y="29.55" transform="matrix(-0.0944 0.9955 -0.9955 -0.0944 355.1816 -128.907)" class="st12" width="6.67" height="135.1"/>
					</g>
					<g>
						
							<rect x="352.99" y="47.86" transform="matrix(-1.836970e-16 1 -1 -1.836970e-16 459.5219 -253.1326)" class="st12" width="6.67" height="110.67"/>
					</g>
					<g>
						<rect x="300.99" y="72.19" class="st12" width="6.67" height="57.13"/>
					</g>
					<g>
						<rect x="404.99" y="72.19" class="st12" width="6.67" height="34.33"/>
					</g>
					<g>
						<rect x="370.33" y="72.19" class="st12" width="6.67" height="34.33"/>
					</g>
					<g>
						<g>
							
								<rect x="388.54" y="71.65" transform="matrix(0.6126 -0.7904 0.7904 0.6126 80.0799 343.8324)" class="st12" width="4.47" height="37.16"/>
						</g>
						<g>
							
								<rect x="388.54" y="71.65" transform="matrix(-0.6126 -0.7904 0.7904 -0.6126 558.8361 454.3785)" class="st12" width="4.47" height="37.16"/>
						</g>
					</g>
					<g>
						<rect x="300.99" y="72.19" class="st12" width="6.67" height="34.33"/>
					</g>
					<g>
						<g>
							
								<rect x="284.54" y="71.65" transform="matrix(0.6126 -0.7904 0.7904 0.6126 39.7878 261.6296)" class="st12" width="4.47" height="37.16"/>
						</g>
						<g>
							
								<rect x="284.54" y="71.65" transform="matrix(-0.6126 -0.7904 0.7904 -0.6126 391.1299 372.1743)" class="st12" width="4.47" height="37.16"/>
						</g>
					</g>
					<g>
						<rect x="266.33" y="72.19" class="st12" width="6.67" height="29.67"/>
					</g>
					<g>
						<g>
							<polygon class="st12" points="268.17,95.27 265.43,98.53 236.05,77.51 238.79,74.25 							"/>
						</g>
						<g>
							<polygon class="st12" points="236.05,95.27 238.79,98.53 268.17,77.51 265.43,74.25 							"/>
						</g>
					</g>
					<g>
						<rect x="231.66" y="72.19" class="st12" width="6.67" height="26.33"/>
					</g>
					<g>
						<g>
							<polygon class="st12" points="233.5,93.07 230.76,96.05 201.39,76.86 204.13,73.88 							"/>
						</g>
						<g>
							<polygon class="st12" points="201.39,93.07 204.13,96.05 233.5,76.86 230.76,73.88 							"/>
						</g>
					</g>
					<g>
						<rect x="196.99" y="72.19" class="st12" width="6.67" height="22.5"/>
					</g>
					<g>
						<g>
							<polygon class="st12" points="198.84,89.56 196.51,91.5 171.55,79.02 173.88,77.08 							"/>
						</g>
						<g>
							<polygon class="st12" points="171.55,89.56 173.88,91.5 198.84,79.02 196.51,77.08 							"/>
						</g>
					</g>
					<g>
						<g>
							
								<rect x="354.09" y="71.65" transform="matrix(0.6126 -0.7904 0.7904 0.6126 66.7321 316.6009)" class="st12" width="4.47" height="37.16"/>
						</g>
						<g>
							
								<rect x="354.09" y="71.65" transform="matrix(-0.6126 -0.7904 0.7904 -0.6126 503.2878 427.1443)" class="st12" width="4.47" height="37.16"/>
						</g>
					</g>
					<g>
						<g>
							
								<rect x="319.27" y="71.65" transform="matrix(0.6126 -0.7904 0.7904 0.6126 53.2422 289.0789)" class="st12" width="4.47" height="37.16"/>
						</g>
						<g>
							
								<rect x="319.27" y="71.65" transform="matrix(-0.6126 -0.7904 0.7904 -0.6126 447.1374 399.6214)" class="st12" width="4.47" height="37.16"/>
						</g>
					</g>
					<g>
						<path class="st12" d="M163.29,84.12c0,0.78-0.63,1.41-1.41,1.41c-0.78,0-1.41-0.63-1.41-1.41c0-0.78,0.63-1.41,1.41-1.41
							C162.66,82.72,163.29,83.34,163.29,84.12z"/>
					</g>
				</g>
				<g>
					<path class="st13" d="M384.66,299.5h-284V138c0-4.69,3.81-8.5,8.5-8.5h267c4.69,0,8.5,3.81,8.5,8.5V299.5z"/>
				</g>
				<g>
					<path class="st0" d="M366.66,286.17h-248c-3.13,0-5.67-2.54-5.67-5.67v-132c0-3.13,2.54-5.67,5.67-5.67h248
						c3.13,0,5.67,2.54,5.67,5.67v132C372.33,283.63,369.79,286.17,366.66,286.17z"/>
				</g>
				<g>
					<path class="st14" d="M403.22,324.83H82.1c-7.7,0-13.94-6.24-13.94-13.94v-5.88c0-3.05,2.47-5.51,5.51-5.51h337.97
						c3.05,0,5.51,2.47,5.51,5.51v5.88C417.16,318.59,410.92,324.83,403.22,324.83z"/>
				</g>
				<g>
					<path class="st15" d="M118.66,142.83c-3.13,0-5.67,2.54-5.67,5.67v15.26h0.16v1.13c0,3.84,3.12,6.96,6.96,6.96
						c3.84,0,6.96-3.12,6.96-6.96v-6.34c0.34-1.53,1.7-2.67,3.33-2.67c1.89,0,3.42,1.53,3.42,3.42v4.46v11.67
						c0,3.63,2.94,6.57,6.57,6.57h0c3.63,0,6.57-2.94,6.57-6.57v-11.67v-3.79c0-2.95,2.4-5.35,5.35-5.35h0
						c2.95,0,5.35,2.4,5.35,5.35v3.79v12.16c0,11.09,8.99,20.08,20.08,20.08h0c10.58,0,19.22-8.18,20-18.56h0.08v-2.83
						c0-2.3,1.87-4.17,4.17-4.17h0c2.3,0,4.17,1.87,4.17,4.17v2.83v8.41c0,3.63,2.94,6.57,6.57,6.57c3.63,0,6.57-2.94,6.57-6.57
						v7.48c0,3.63,2.94,6.57,6.57,6.57c3.63,0,6.57-2.94,6.57-6.57v-29.58v-0.81v-2.9c0-2.3,1.87-4.17,4.17-4.17
						c2.3,0,4.17,1.87,4.17,4.17v3.72v7.81c0,3.63,2.94,6.57,6.57,6.57s6.57-2.94,6.57-6.57v-7.81V151.9v-0.64
						c0-2.3,1.87-4.17,4.17-4.17s4.17,1.87,4.17,4.17v12.5h7.48v-20.93H118.66z"/>
				</g>
				<g>
					<polygon class="st16" points="128.95,194.76 127.76,193.16 158.47,170.37 162.8,170.37 188.4,184.23 187.45,185.99 
						162.3,172.37 159.13,172.37 					"/>
				</g>
				<g>
					<g>
						<g>
							<path class="st17" d="M357.08,237.56c-0.76-0.2-1.45-0.67-1.92-1.37c-1.42-2.14-6.13-9.39-6.98-12.58
								c-1.95-7.34-0.35-15.09-0.28-15.42c0.38-1.8,2.14-2.94,3.94-2.56c1.81,0.38,2.94,2.15,2.56,3.94
								c-0.01,0.06-1.34,6.56,0.2,12.33c0.39,1.47,3.47,6.65,6.09,10.61c1.01,1.53,0.6,3.59-0.93,4.61
								C358.94,237.67,357.97,237.8,357.08,237.56z"/>
						</g>
					</g>
					<g>
						<path class="st18" d="M360.7,232.51c-1.83-2.75-3.87-6.09-5.07-8.37l-5.98,1.35c-0.11,0.35-0.18,0.73-0.22,1.13
							c1.75,3.49,4.66,7.96,5.73,9.57c0.47,0.7,1.16,1.17,1.92,1.37c0.89,0.23,1.86,0.1,2.69-0.44
							C361.3,236.1,361.71,234.04,360.7,232.51z"/>
					</g>
					<g>
						<path class="st18" d="M289.84,207.28l62.1,10.2c2.35,0.39,4.58-1.21,4.96-3.56l0,0c0.39-2.35-1.21-4.57-3.56-4.96l-62.1-10.2
							c-2.35-0.39-4.58,1.21-4.96,3.56l0,0C285.89,204.68,287.48,206.9,289.84,207.28z"/>
					</g>
					<g>
						
							<rect x="349.65" y="228.76" transform="matrix(-1 -1.224647e-16 1.224647e-16 -1 709.0736 463.6429)" class="st19" width="9.78" height="6.12"/>
					</g>
					<g>
						<path class="st20" d="M348.33,217l12.91,2.19l0.49-2.89c0.59-3.49-1.76-6.79-5.24-7.38l0,0c-3.65-0.62-7.1,1.84-7.72,5.49
							L348.33,217z"/>
					</g>
					<g>
						<path class="st19" d="M349.62,229.64l9.39,1.59l2.36-13.92l-13.26-2.25l-1.7,10.05C346.04,227.25,347.48,229.28,349.62,229.64
							z"/>
					</g>
					<g>
						<path class="st21" d="M355.17,227.76L355.17,227.76c2.82,0.48,5.5-1.42,5.98-4.25l0.83-4.91l-11.92-2.02l-0.55,3.23
							C348.89,223.57,351.42,227.13,355.17,227.76z"/>
					</g>
					<g>
						<path class="st20" d="M346.27,218.5l15.71,2.66c0.5,0.08,0.96-0.25,1.05-0.74l0,0c0.08-0.5-0.25-0.96-0.74-1.05l-15.71-2.66
							c-0.5-0.08-0.96,0.25-1.05,0.74l0,0C345.44,217.95,345.78,218.42,346.27,218.5z"/>
					</g>
					<g>
						<path class="st11" d="M355.72,209.78L355.72,209.78c4.16,0.71,6.97,4.65,6.26,8.82l-0.12,0.7l-15.08-2.55l0.12-0.7
							C347.61,211.88,351.56,209.08,355.72,209.78z"/>
					</g>
					<g>
						<path class="st1" d="M344.4,260.77h19.75v-23.75c0-2.64-2.14-4.79-4.79-4.79h-10.18c-2.64,0-4.79,2.14-4.79,4.79V260.77z"/>
					</g>
					<g>
						<path class="st17" d="M349.77,222.51l-0.69-0.12l0.56-3.32l0.69,0.12c0.92,0.16,1.54,1.02,1.38,1.94l0,0
							C351.56,222.05,350.69,222.67,349.77,222.51z"/>
					</g>
					<g>
						
							<rect x="348.42" y="218.97" transform="matrix(-0.986 -0.167 0.167 -0.986 656.0578 496.4623)" class="st21" width="0.95" height="3.37"/>
					</g>
					<g>
						<polygon class="st17" points="347.49,218.71 346.05,222.56 346.76,222.98 						"/>
					</g>
					<g>
						
							<rect x="344.4" y="260.77" transform="matrix(-1 -1.224647e-16 1.224647e-16 -1 707.2227 529.2994)" class="st22" width="18.41" height="7.75"/>
					</g>
					<g>
						
							<rect x="355.25" y="268.53" transform="matrix(-1 -1.224647e-16 1.224647e-16 -1 718.0645 564.0518)" class="st22" width="7.57" height="27"/>
					</g>
					<g>
						
							<rect x="344.4" y="268.53" transform="matrix(-1 -1.224647e-16 1.224647e-16 -1 696.3808 564.0518)" class="st22" width="7.57" height="27"/>
					</g>
					<g>
						<g>
							<path class="st19" d="M348.9,239.32c-0.85,0-1.69-0.32-2.34-0.97c-1.45-1.44-8.77-8.78-10.4-11.64
								c-3.77-6.6-4.2-14.5-4.22-14.83c-0.09-1.83,1.32-3.39,3.15-3.49c1.82-0.09,3.39,1.32,3.48,3.15c0,0.06,0.39,6.68,3.35,11.87
								c0.79,1.39,5.36,6.29,9.32,10.23c1.3,1.29,1.31,3.4,0.01,4.7C350.6,238.99,349.75,239.32,348.9,239.32z"/>
						</g>
					</g>
					<g>
						<path class="st23" d="M350.64,300.48h12.18v-4.95h-7.23C352.86,295.53,350.64,297.74,350.64,300.48L350.64,300.48z"/>
					</g>
					<g>
						<path class="st21" d="M339.8,300.48h12.18v-4.95h-7.23C342.02,295.53,339.8,297.74,339.8,300.48L339.8,300.48z"/>
					</g>
					<g>
						
							<rect x="344.4" y="241.9" transform="matrix(-1 -1.224647e-16 1.224647e-16 -1 708.5623 489.0015)" class="st20" width="19.75" height="5.2"/>
					</g>
					<g>
						
							<rect x="344.4" y="248.66" transform="matrix(-1 -1.224647e-16 1.224647e-16 -1 708.5623 500.7429)" class="st20" width="19.75" height="3.43"/>
					</g>
					<g>
						<path class="st20" d="M359.75,216.3c0.59-3.49-1.76-6.79-5.24-7.38c-0.05-0.01-0.09-0.01-0.14-0.02
							c0.69-0.1,1.4-0.11,2.12,0.02h0c3.49,0.59,5.83,3.89,5.24,7.38l-0.49,2.89l-1.93-0.33L359.75,216.3z"/>
					</g>
					<g>
						<path class="st21" d="M362.88,223.15h-6.91v4.68h2.24C360.79,227.83,362.88,225.73,362.88,223.15L362.88,223.15z"/>
					</g>
					<g>
						<path class="st18" d="M351.24,233.64c-2.32-2.31-4.85-4.94-6.7-7.01l-4.58,4.84c2.63,2.92,5.71,6.01,6.6,6.89
							c0.65,0.64,1.5,0.97,2.34,0.97c0.85,0,1.71-0.33,2.36-0.98C352.55,237.03,352.54,234.93,351.24,233.64z"/>
					</g>
				</g>
				<g>
					<g>
						<g>
							<path class="st17" d="M123.01,239.99c-2.36,0-4.21-0.24-4.62-0.3c-1.82-0.26-3.08-1.94-2.82-3.76
								c0.26-1.82,1.94-3.08,3.76-2.82c2.88,0.4,7.83,0.4,9.8-0.88c3.55-2.3,4.62-8.98,4.72-11.14c0.08-1.83,1.64-3.24,3.47-3.17
								c1.83,0.08,3.25,1.64,3.17,3.47c-0.05,1.2-0.73,11.87-7.74,16.42C130.01,239.58,126.08,239.99,123.01,239.99z"/>
						</g>
					</g>
					<g>
						
							<rect x="129.74" y="188.24" transform="matrix(0.9881 -0.1541 0.1541 0.9881 -30.202 27.3723)" class="st18" width="63.39" height="40.47"/>
					</g>
					<g>
						<path class="st24" d="M133.24,233.35"/>
					</g>
					<g>
						<polygon class="st19" points="128.32,215.26 131.61,217.04 130.64,219.37 						"/>
					</g>
					<g>
						<rect x="118.99" y="227.78" class="st19" width="9.78" height="6.12"/>
					</g>
					<g>
						<path class="st20" d="M128.35,212.92l-14.98,8.46l-0.77-1.36c-2.34-4.14-0.88-9.38,3.26-11.72l0,0
							c4.14-2.34,9.38-0.88,11.72,3.26L128.35,212.92z"/>
					</g>
					<g>
						<path class="st19" d="M127.65,229.57l-6.31,3.57l-7.96-14.09l13.1-7.4l4.13,7.31C132.72,222.7,131.4,227.45,127.65,229.57z"/>
					</g>
					<g>
						<path class="st25" d="M121.5,226.66l-0.59,0.33c-1.71,0.96-3.87,0.36-4.83-1.34l-2.86-5.06l7.79-4.4l2.28,4.04
							C124.57,222.5,123.77,225.38,121.5,226.66z"/>
					</g>
					<g>
						<path class="st20" d="M129.27,214.68l-15.11,8.54c-0.48,0.27-1.08,0.1-1.35-0.38l0,0c-0.27-0.48-0.1-1.08,0.37-1.35
							l15.11-8.54c0.48-0.27,1.08-0.1,1.35,0.38l0,0C129.92,213.8,129.75,214.41,129.27,214.68z"/>
					</g>
					<g>
						<path class="st11" d="M116.37,209.25L116.37,209.25c-4,2.26-5.42,7.34-3.15,11.35l0.38,0.67l14.5-8.19l-0.38-0.67
							C125.45,208.4,120.37,206.98,116.37,209.25z"/>
					</g>
					<g>
						<path class="st1" d="M134.02,259.8h-19.75v-23.75c0-2.64,2.14-4.79,4.79-4.79h10.18c2.64,0,4.79,2.14,4.79,4.79V259.8z"/>
					</g>
					<g>
						<path class="st17" d="M123.97,221.88l0.66-0.37l-1.8-3.19l-0.66,0.37c-0.88,0.5-1.19,1.62-0.69,2.5l0,0
							C121.97,222.07,123.08,222.38,123.97,221.88z"/>
					</g>
					<g>
						
							<rect x="123.65" y="217.84" transform="matrix(0.8707 -0.4918 0.4918 0.8707 -91.9886 89.4751)" class="st25" width="1.03" height="3.67"/>
					</g>
					<g>
						<path class="st22" d="M115.6,259.8v7.75v11.93h7.57v-10.3c0-0.9,0.73-1.63,1.63-1.63l0,0c0.9,0,1.63,0.73,1.63,1.63v10.3h7.57
							v-11.93v-7.75H115.6z"/>
					</g>
					<g>
						<path class="st23" d="M127.78,299.5H115.6v-4.95h7.23C125.56,294.55,127.78,296.77,127.78,299.5L127.78,299.5z"/>
					</g>
					<g>
						<path class="st21" d="M138.62,299.5h-12.18v-4.95h7.23C136.4,294.55,138.62,296.77,138.62,299.5L138.62,299.5z"/>
					</g>
					<g>
						<rect x="114.26" y="240.92" class="st20" width="19.75" height="5.2"/>
					</g>
					<g>
						<rect x="114.26" y="247.68" class="st20" width="19.75" height="3.43"/>
					</g>
					<g>
						<g>
							<path class="st19" d="M141.16,243.93c-4.85,0-10.25-3.49-12.14-4.82c-1.5-1.06-1.85-3.13-0.79-4.63
								c1.06-1.5,3.13-1.85,4.63-0.8l0,0c3.63,2.56,8,4.1,8.89,3.52c3.85-2.5,3.16-7.53,3.13-7.75c-0.26-1.81,0.98-3.5,2.78-3.77
								c1.8-0.27,3.49,0.94,3.78,2.74c0.06,0.38,1.43,9.48-6.08,14.35C144.09,243.6,142.65,243.93,141.16,243.93z"/>
						</g>
					</g>
					<g>
						<rect x="115.6" y="279.48" class="st19" width="6.89" height="15.07"/>
					</g>
					<g>
						<rect x="126.44" y="279.48" class="st19" width="6.89" height="15.07"/>
					</g>
					<g>
						<path class="st18" d="M141.51,237.29c-1.26,0.27-5.27-1.23-8.65-3.61c-1.5-1.06-3.57-0.7-4.63,0.8
							c-1.06,1.5-0.7,3.57,0.79,4.63c1.75,1.24,6.51,4.32,11.06,4.76L141.51,237.29z"/>
					</g>
					<g>
						<rect x="115.6" y="291.19" class="st18" width="6.89" height="3.36"/>
					</g>
					<g>
						<rect x="126.44" y="291.19" class="st18" width="6.89" height="3.36"/>
					</g>
				</g>
				<g>
					<path class="st9" d="M161.13,171.81c-6.07,0-11-4.93-11-11c0-5.56,4.14-10.16,9.5-10.9v-5.23c0-0.83,0.67-1.5,1.5-1.5
						c0.83,0,1.5,0.67,1.5,1.5v6.63c0,0.83-0.67,1.5-1.5,1.5c-4.41,0-8,3.59-8,8c0,4.41,3.59,8,8,8c2.14,0,4.15-0.83,5.66-2.34
						c0.59-0.59,1.54-0.59,2.12,0c0.59,0.59,0.59,1.54,0,2.12C166.83,170.67,164.07,171.81,161.13,171.81z"/>
				</g>
				<g>
					<path class="st8" d="M158.8,172.8L158.8,172.8c-0.52,0-0.94-0.42-0.94-0.94v-4.11c0-0.52,0.42-0.94,0.94-0.94l0,0
						c0.52,0,0.94,0.42,0.94,0.94v4.11C159.74,172.38,159.32,172.8,158.8,172.8z"/>
				</g>
				<g>
					<path class="st8" d="M160.68,172.8L160.68,172.8c-0.52,0-0.94-0.42-0.94-0.94v-4.11c0-0.52,0.42-0.94,0.94-0.94l0,0
						c0.52,0,0.94,0.42,0.94,0.94v4.11C161.61,172.38,161.19,172.8,160.68,172.8z"/>
				</g>
				<g>
					<path class="st8" d="M162.55,172.8L162.55,172.8c-0.52,0-0.94-0.42-0.94-0.94v-4.11c0-0.52,0.42-0.94,0.94-0.94l0,0
						c0.52,0,0.94,0.42,0.94,0.94v4.11C163.49,172.38,163.07,172.8,162.55,172.8z"/>
				</g>
				<g>
					<g>
						<polygon class="st26" points="270.71,299.5 275.6,299.5 266.82,245.24 261.93,245.24 						"/>
					</g>
					<g>
						<polygon class="st27" points="274.19,299.5 279.07,299.5 270.3,245.24 265.41,245.24 						"/>
					</g>
					<g>
						
							<rect x="270.67" y="257.71" transform="matrix(-1 -1.224647e-16 1.224647e-16 -1 562.3525 519.5775)" class="st26" width="21" height="4.16"/>
					</g>
					<g>
						
							<rect x="272.68" y="271.28" transform="matrix(-1 -1.224647e-16 1.224647e-16 -1 566.3637 546.7073)" class="st26" width="21" height="4.16"/>
					</g>
					<g>
						
							<rect x="270.67" y="284.84" transform="matrix(-1 -1.224647e-16 1.224647e-16 -1 567.2753 573.8371)" class="st26" width="25.93" height="4.16"/>
					</g>
					<g>
						<polygon class="st26" points="292.97,299.5 297.85,299.5 289.08,245.24 284.19,245.24 						"/>
					</g>
					<g>
						<polygon class="st27" points="295.63,299.5 300.52,299.5 291.74,245.24 286.85,245.24 						"/>
					</g>
					<g>
						<polygon class="st27" points="247.65,299.5 242.76,299.5 251.54,245.24 256.43,245.24 						"/>
					</g>
					<g>
						<polygon class="st28" points="244.99,299.5 240.1,299.5 248.88,245.24 253.77,245.24 						"/>
					</g>
					<g>
						<polygon class="st27" points="269.91,299.5 265.02,299.5 273.8,245.24 278.68,245.24 						"/>
					</g>
					<g>
						<polygon class="st28" points="266.43,299.5 261.54,299.5 270.32,245.24 275.21,245.24 						"/>
					</g>
					<g>
						<rect x="248.94" y="257.71" class="st28" width="21" height="4.16"/>
					</g>
					<g>
						<rect x="248.94" y="241.08" class="st28" width="26.27" height="4.16"/>
					</g>
					<g>
						<rect x="275.21" y="241.08" class="st27" width="16.54" height="4.16"/>
					</g>
					<g>
						<rect x="246.93" y="271.28" class="st28" width="21" height="4.16"/>
					</g>
					<g>
						<rect x="244.02" y="284.84" class="st28" width="21" height="4.16"/>
					</g>
				</g>
				<g>
					<g>
						<path class="st29" d="M390.22,300.61h-90.94c-0.95,0-1.73-0.77-1.73-1.73v-22.35c0-0.95,0.77-1.73,1.73-1.73h90.94
							c0.95,0,1.73,0.77,1.73,1.73v22.35C391.95,299.84,391.18,300.61,390.22,300.61z"/>
					</g>
					<g>
						<g>
							<rect x="301.79" y="300.61" class="st18" width="9.94" height="50.95"/>
						</g>
						<g>
							<rect x="377.77" y="300.61" class="st18" width="9.94" height="50.95"/>
						</g>
					</g>
					<g>
						<rect x="301.79" y="320.42" class="st29" width="85.92" height="15.38"/>
					</g>
					<g>
						<path class="st18" d="M313.81,356.32h-14.1c-1.31,0-2.38-1.06-2.38-2.38l0,0c0-1.31,1.06-2.38,2.38-2.38h14.1
							c1.31,0,2.38,1.06,2.38,2.38l0,0C316.19,355.26,315.12,356.32,313.81,356.32z"/>
					</g>
					<g>
						<path class="st18" d="M389.79,356.32h-14.1c-1.31,0-2.38-1.06-2.38-2.38l0,0c0-1.31,1.06-2.38,2.38-2.38h14.1
							c1.31,0,2.38,1.06,2.38,2.38l0,0C392.17,355.26,391.1,356.32,389.79,356.32z"/>
					</g>
					<g>
						<g>
							<polygon class="st1" points="366.15,274.81 347.62,274.81 321.82,300.61 340.35,300.61 							"/>
						</g>
						<g>
							<path class="st1" d="M329.08,274.81h-18.54l-12.99,12.99v11.08c0,0.95,0.77,1.73,1.73,1.73h4L329.08,274.81z"/>
						</g>
						<g>
							<path class="st1" d="M391.95,286.09v-9.55c0-0.95-0.77-1.73-1.73-1.73h-5.53l-25.8,25.8h18.54L391.95,286.09z"/>
						</g>
					</g>
					<g>
						<g>
							<polygon class="st1" points="307.09,320.42 301.79,325.72 301.79,335.8 310.25,335.8 325.63,320.42 							"/>
						</g>
						<g>
							<polygon class="st1" points="362.7,320.42 344.17,320.42 328.79,335.8 347.33,335.8 							"/>
						</g>
						<g>
							<polygon class="st1" points="387.71,332.53 387.71,320.42 381.29,320.42 365.91,335.8 384.45,335.8 							"/>
						</g>
					</g>
				</g>
				<g>
					<g>
						<path class="st30" d="M131.61,329.12l16.13-37.51c0.95-2.2,3.49-3.21,5.69-2.27l0,0c2.2,0.95,3.21,3.49,2.27,5.69
							l-16.13,37.51c-0.95,2.2-3.49,3.21-5.69,2.27l0,0C131.68,333.87,130.67,331.32,131.61,329.12z"/>
					</g>
					<g>
						<path class="st1" d="M183.53,337.04c3.35,0.54,6.63-1.27,7.97-4.39l0,0l0,0c1.34-3.11,0.39-6.74-2.3-8.8l-34.52-26.44
							l-7.04,16.38l-7.04,16.38L183.53,337.04z"/>
					</g>
					<g>
						<polygon class="st29" points="173.43,311.77 163.91,333.91 172.78,335.32 180.56,317.24 						"/>
					</g>
					<g>
						<polygon class="st29" points="160.12,301.58 147.36,331.26 156.23,332.68 167.26,307.04 						"/>
					</g>
				</g>
				<g>
					<path class="st9" d="M164.75,142.19h-7.25c-2.68,0-4.84-2.17-4.84-4.84v-12.06c0-2.68,2.17-4.84,4.84-4.84h7.25
						c2.68,0,4.84,2.17,4.84,4.84v12.06C169.6,140.02,167.43,142.19,164.75,142.19z"/>
				</g>
				<g>
					<path class="st10" d="M161.13,146.02L161.13,146.02c-1.86,0-3.38-1.51-3.38-3.38v-0.46h6.75v0.46
						C164.5,144.51,162.99,146.02,161.13,146.02z"/>
				</g>
				<g>
					<circle class="st10" cx="161.13" cy="128.71" r="1.69"/>
				</g>
				<g>
					<g>
						<g>
							<path class="st31" d="M265.13,181.57c-2.36,0-4.21-0.24-4.62-0.3c-1.82-0.26-3.08-1.94-2.82-3.76
								c0.26-1.82,1.94-3.08,3.76-2.82c2.88,0.4,7.83,0.4,9.8-0.88c3.55-2.3,4.62-8.98,4.72-11.14c0.08-1.83,1.64-3.24,3.47-3.17
								c1.83,0.08,3.25,1.64,3.17,3.47c-0.05,1.2-0.73,11.87-7.74,16.42C272.13,181.16,268.2,181.57,265.13,181.57z"/>
						</g>
					</g>
					<g>
						<rect x="279.34" y="151.81" class="st18" width="71.57" height="26.43"/>
					</g>
					<g>
						<path class="st24" d="M350.92,178.25"/>
					</g>
					<g>
						<path class="st24" d="M279.34,151.81"/>
					</g>
					<g>
						<path class="st24" d="M279.34,178.25"/>
					</g>
					<g>
						<g>
							<rect x="261.12" y="169.37" class="st32" width="9.78" height="6.12"/>
						</g>
					</g>
					<g>
						<path class="st20" d="M272.22,157.61l-12.91,2.19l-0.49-2.89c-0.59-3.49,1.76-6.79,5.24-7.38l0,0
							c3.65-0.62,7.1,1.84,7.72,5.49L272.22,157.61z"/>
					</g>
					<g>
						<g>
							<path class="st32" d="M270.92,170.25l-9.39,1.59l-2.36-13.92l13.26-2.25l1.7,10.05
								C274.51,167.86,273.06,169.89,270.92,170.25z"/>
						</g>
					</g>
					<g>
						<path class="st25" d="M265.37,168.37L265.37,168.37c-2.83,0.48-5.5-1.42-5.98-4.25l-0.83-4.91l11.92-2.02l0.55,3.23
							C271.66,164.17,269.13,167.74,265.37,168.37z"/>
					</g>
					<g>
						<path class="st20" d="M274.27,159.11l-15.71,2.66c-0.5,0.08-0.96-0.25-1.05-0.74l0,0c-0.08-0.5,0.25-0.96,0.74-1.05
							l15.71-2.66c0.5-0.08,0.96,0.25,1.05,0.74l0,0C275.1,158.55,274.77,159.02,274.27,159.11z"/>
					</g>
					<g>
						<path class="st11" d="M264.82,150.39L264.82,150.39c-4.16,0.71-6.97,4.65-6.26,8.82l0.12,0.7l15.08-2.55l-0.12-0.7
							C272.93,152.49,268.99,149.69,264.82,150.39z"/>
					</g>
					<g>
						<path class="st1" d="M276.14,201.38h-19.75v-23.75c0-2.64,2.14-4.79,4.79-4.79h10.18c2.64,0,4.79,2.14,4.79,4.79V201.38z"/>
					</g>
					<g>
						<path class="st31" d="M270.77,163.12l0.69-0.12l-0.56-3.32l-0.69,0.12c-0.92,0.16-1.54,1.02-1.38,1.94l0,0
							C268.99,162.65,269.86,163.27,270.77,163.12z"/>
					</g>
					<g>
						
							<rect x="271.17" y="159.58" transform="matrix(0.986 -0.167 0.167 0.986 -23.1113 47.6177)" class="st25" width="0.95" height="3.37"/>
					</g>
					<g>
						<polygon class="st31" points="273.06,159.31 274.5,163.16 273.78,163.58 						"/>
					</g>
					<g>
						<path class="st22" d="M257.73,201.38v7.75v27h7.57v-25.36c0-0.9,0.73-1.63,1.63-1.63l0,0c0.9,0,1.63,0.73,1.63,1.63v25.36
							h7.57v-27v-7.75H257.73z"/>
					</g>
					<g>
						<g>
							<path class="st32" d="M277.21,181.57c-2.36,0-4.21-0.24-4.62-0.3c-1.82-0.26-3.08-1.94-2.82-3.76
								c0.26-1.81,1.94-3.08,3.76-2.82l0,0c2.88,0.4,7.83,0.4,9.8-0.88c3.53-2.29,4.61-8.82,4.72-11.15
								c0.09-1.78,1.56-3.16,3.32-3.16c0.05,0,0.1,0,0.16,0c1.83,0.09,3.25,1.63,3.16,3.46c-0.05,1.2-0.73,11.87-7.74,16.42
								C284.21,181.16,280.28,181.57,277.21,181.57z"/>
						</g>
					</g>
					<g>
						<path class="st23" d="M269.9,241.08h-12.18v-4.95h7.23C267.69,236.13,269.9,238.35,269.9,241.08L269.9,241.08z"/>
					</g>
					<g>
						<path class="st21" d="M280.74,241.08h-12.18v-4.95h7.23C278.53,236.13,280.74,238.35,280.74,241.08L280.74,241.08z"/>
					</g>
					<g>
						<rect x="256.39" y="182.51" class="st20" width="19.75" height="5.2"/>
					</g>
					<g>
						<rect x="256.39" y="189.27" class="st20" width="19.75" height="3.43"/>
					</g>
					<g>
						<path class="st20" d="M260.8,156.91c-0.59-3.49,1.76-6.79,5.24-7.38c0.05-0.01,0.09-0.01,0.14-0.02
							c-0.69-0.1-1.4-0.11-2.12,0.02h0c-3.49,0.59-5.83,3.89-5.24,7.38l0.49,2.89l1.93-0.33L260.8,156.91z"/>
					</g>
				</g>
				<g>
					<g>
						<path class="st30" d="M122.92,299.5H82.1c-2.39,0-4.33-1.94-4.33-4.33l0,0c0-2.39,1.94-4.33,4.33-4.33h40.83
							c2.39,0,4.33,1.94,4.33,4.33l0,0C127.26,297.56,125.32,299.5,122.92,299.5z"/>
					</g>
					<g>
						<path class="st1" d="M109.69,248.67c-0.83-3.29-3.79-5.59-7.18-5.59l0,0l0,0c-3.39,0-6.35,2.3-7.18,5.59l-10.65,42.16h17.83
							h17.83L109.69,248.67z"/>
					</g>
					<g>
						<polygon class="st29" points="90.46,267.94 114.55,267.94 112.35,259.23 92.66,259.23 						"/>
					</g>
					<g>
						<polygon class="st29" points="86.36,284.19 118.66,284.19 116.46,275.48 88.56,275.48 						"/>
					</g>
				</g>
				<g>
					<path class="st18" d="M285.02,197.52l62.94-0.05c2.39,0,4.32-1.94,4.32-4.32l0,0c0-2.39-1.94-4.32-4.32-4.32l-62.94,0.05
						c-2.39,0-4.32,1.94-4.32,4.32l0,0C280.7,195.59,282.63,197.52,285.02,197.52z"/>
				</g>
				<g>
					<path class="st18" d="M168.24,247.87l62.94-0.05c2.39,0,4.32-1.94,4.32-4.32l0,0c0-2.39-1.94-4.32-4.32-4.32l-62.94,0.05
						c-2.39,0-4.32,1.94-4.32,4.32l0,0C163.92,245.94,165.85,247.87,168.24,247.87z"/>
				</g>
				<g>
					<path class="st18" d="M168.24,263.57l62.94-0.05c2.39,0,4.32-1.94,4.32-4.32l0,0c0-2.39-1.94-4.32-4.32-4.32l-62.94,0.05
						c-2.39,0-4.32,1.94-4.32,4.32v0C163.92,261.64,165.85,263.57,168.24,263.57z"/>
				</g>
				<g>
					<path class="st18" d="M168.24,279.15l52.11-0.04c2.39,0,4.32-1.94,4.32-4.32l0,0c0-2.39-1.94-4.32-4.32-4.32l-52.11,0.04
						c-2.39,0-4.32,1.94-4.32,4.32l0,0C163.92,277.22,165.85,279.15,168.24,279.15z"/>
				</g>
				<g>
					<g>
						<g>
							<path class="st9" d="M225.92,176.38c-0.07,0-0.15-0.01-0.23-0.03l-1.83-0.48c-0.48-0.12-0.76-0.61-0.64-1.09
								c0.12-0.48,0.61-0.76,1.09-0.64l0.97,0.25l1.02-3.87l-10.38-2.72c-0.23-0.06-0.42-0.21-0.54-0.41
								c-0.12-0.2-0.15-0.45-0.09-0.68l1.38-5.27c0.12-0.48,0.61-0.76,1.09-0.63c0.47,0.12,0.76,0.61,0.63,1.09l-1.16,4.41
								l10.38,2.72c0.48,0.12,0.76,0.61,0.64,1.09l-1.47,5.6C226.68,176.12,226.32,176.38,225.92,176.38z"/>
						</g>
						<g>
							<path class="st33" d="M206.77,167.67l17.18,4.51c0.46,0.12,0.73,0.59,0.61,1.04l-0.94,3.59c-0.12,0.46-0.59,0.73-1.04,0.61
								l-17.18-4.51c-0.46-0.12-0.73-0.59-0.61-1.04l0.94-3.59C205.85,167.82,206.32,167.55,206.77,167.67z"/>
						</g>
						<g>
							<path class="st18" d="M216.03,160.16l3.52,0.92l-0.33,1.26c-0.09,0.36-0.46,0.57-0.82,0.48l-2.22-0.58
								c-0.36-0.09-0.57-0.46-0.48-0.82L216.03,160.16z"/>
						</g>
						<g>
							<path class="st1" d="M219.06,148.58l3.52,0.92c0.26,0.07,0.41,0.33,0.34,0.59l-2.79,10.65c-0.07,0.26-0.33,0.41-0.59,0.34
								l-3.52-0.92c-0.26-0.07-0.41-0.33-0.34-0.59l2.79-10.65C218.54,148.66,218.81,148.51,219.06,148.58z"/>
						</g>
					</g>
					<g>
						<path class="st1" d="M213.48,119.45h-9.63c-5.56,0-10.06,4.5-10.06,10.06l0,0c0,0.06,0.04,0.1,0.1,0.1h29.55
							c0.05,0,0.1-0.04,0.1-0.1l0,0C223.53,123.95,219.03,119.45,213.48,119.45z"/>
					</g>
					<g>
						<g>
							<path class="st17" d="M208.19,135.61l-1.4-0.18c-3.92-0.5-6.7-4.08-6.2-8l0.54-4.26l15.61,1.98l-0.54,4.26
								C215.7,133.33,212.11,136.11,208.19,135.61z"/>
						</g>
						<g>
							<path class="st20" d="M217.44,126.65c-0.6,4.74-4.94,8.1-9.68,7.5c-4.74-0.6-8.1-4.94-7.5-9.68c0.6-4.74,4.94-8.1,9.68-7.5
								C214.68,117.57,218.04,121.9,217.44,126.65z"/>
						</g>
						<g>
							<path class="st11" d="M217.63,125.11c-0.6,4.74-4.94,8.1-9.68,7.5c-4.74-0.6-8.1-4.94-7.5-9.68c0.6-4.74,4.94-8.1,9.68-7.5
								C214.88,116.04,218.23,120.37,217.63,125.11z"/>
						</g>
						<g>
							<path class="st20" d="M210.51,133.96l-5.38-0.68l2.3-18.09c0.06-0.44,0.46-0.76,0.91-0.7l3.77,0.48
								c0.44,0.06,0.76,0.46,0.7,0.91L210.51,133.96z"/>
						</g>
						<g>
							<path class="st17" d="M207.56,134.94l-1.49-0.19l0.08,0.68c0.07,0.63,0.57,1.13,1.2,1.21l0,0l0,0
								c0.63,0.08,1.23-0.28,1.46-0.87l0.25-0.63L207.56,134.94z"/>
						</g>
					</g>
					<g>
						<g>
							<path class="st19" d="M220.4,154.27c-0.77,0-1.54-0.31-2.1-0.93c-1.05-1.16-0.97-2.95,0.19-4c0.02-0.02,3.52-3.34,3.88-8.55
								c0.33-4.88-4.12-9.89-4.17-9.94c-1.06-1.15-0.98-2.95,0.18-4c1.16-1.06,2.95-0.98,4,0.18c0.25,0.27,6.15,6.8,5.64,14.16
								c-0.52,7.55-5.51,12.17-5.72,12.36C221.76,154.03,221.08,154.27,220.4,154.27z"/>
						</g>
					</g>
					<g>
						<g>
							<path class="st19" d="M190,143.81c-1.16,0-2.25-0.72-2.66-1.87l-3.36-9.27c-0.44-1.21-0.35-2.56,0.24-3.71
								c0.59-1.15,1.64-2,2.88-2.35l8.46-2.35c1.51-0.42,3.07,0.46,3.49,1.97c0.42,1.51-0.46,3.07-1.97,3.49l-7.4,2.06l2.98,8.23
								c0.53,1.47-0.23,3.1-1.7,3.63C190.65,143.76,190.32,143.81,190,143.81z"/>
						</g>
					</g>
					<g>
						<path class="st18" d="M199.05,126.23c-0.42-1.51-1.98-2.39-3.49-1.97l-5.33,1.48l2.11,5.3l4.75-1.32
							C198.59,129.3,199.47,127.74,199.05,126.23z"/>
					</g>
					<g>
						<path class="st18" d="M222.38,127.01c-1.06-1.15-2.85-1.23-4-0.18c-1.15,1.06-1.23,2.85-0.18,4c0.03,0.03,1.94,2.19,3.17,5.04
							l4.92-2.85C224.68,129.57,222.53,127.18,222.38,127.01z"/>
					</g>
				</g>
			</g>
			<g class="st34">
				<ellipse cx="66.46" cy="335.42" rx="7.13" ry="2.74"/>
			</g>
			<g class="st34">
				<ellipse cx="406.46" cy="334.05" rx="3.57" ry="1.37"/>
			</g>
			<g class="st34">
				<ellipse cx="259.18" cy="337.14" rx="3.57" ry="1.37"/>
			</g>
			<g class="st34">
				<ellipse cx="433.66" cy="356.32" rx="3.57" ry="1.37"/>
			</g>
			<g class="st34">
				<path d="M123.49,351.56c0,0.76-1.6,1.37-3.57,1.37c-1.97,0-3.57-0.61-3.57-1.37s1.6-1.37,3.57-1.37
					C121.89,350.19,123.49,350.81,123.49,351.56z"/>
			</g>
			<g class="st34">
				<ellipse cx="216.14" cy="356.32" rx="7.13" ry="2.74"/>
			</g>
		</g>
	</g>
</g>
<g id="Designed_By_Freepik">
</g>
</svg>
